# xmcd
#
# Track frame offsets:
#	150
#	12186
#	29737
#	42639
#	52146
#	65875
#	77615
#	90891
#	105258
#	122206
#	134524
#	145471
#
# Disc length: 2084 seconds
#
# Revision: 0
# Processed by: cddbd v1.5.2PL0 Copyright (c) Steve Scherf et al.
# Submitted via: EasyCDDAExtractor 9.0.0.1
#
DISCID=ac08220c
DTITLE=Ray Conniff - Somebody Loves Me
DYEAR=2008
DGENRE=Ballad
TTITLE0=All Or Nothing At All
TTITLE1=Golden Earrings
TTITLE2=I Donn't Want To Set The World On Fire
TTITLE3=I Only Have Eyes For You
TTITLE4=It Had To Be You
TTITLE5=Somebody Loves Me
TTITLE6=Don't Fence Me In
TTITLE7=Moon Song
TTITLE8=The Green Leaves Of Summer
TTITLE9=The Thrill Is Gone
TTITLE10=You'd Be So Nice To Come Home To
TTITLE11=Th
EXTD=
EXTT0=
EXTT1=
EXTT2=
EXTT3=
EXTT4=
EXTT5=
EXTT6=
EXTT7=
EXTT8=
EXTT9=
EXTT10=
EXTT11=
PLAYORDER=
